<svg xmlns="http://www.w3.org/2000/svg" viewBox="0 0 420 490" fill-rule="evenodd" stroke-linejoin="round" stroke-miterlimit="2">
  <g transform="matrix(1.25,0,0,1.25,-100,-82.5)">
    <path d="M265.4,392.3c-112.5,0-203.8,42.5-203.8,94.9c0,52.4,91.3,94.9,203.8,94.9c112.5,0,203.8-42.5,203.8-94.9 c0-52.4-91.3-94.9-203.8-94.9" fill="#292929"/>
    <path d="M265.4,66.5c-112.5,0-203.8,93.4-203.8,208.5c0,115.1,91.3,208.5,203.8,208.5s203.8-93.4,203.8-208.5 C469.2,159.9,377.9,66.5,265.4,66.5" fill="#292929"/>
    <path d="M265.4,85c-97.7,0-176.9,82.8-176.9,185.1c0,102.3,79.2,185.1,176.9,185.1s176.9-82.8,176.9-185.1 C442.3,167.8,363.1,85,265.4,85" fill="#fff"/>
    <path d="M309.8,204c-12.7-3.7-25-3.7-34.9,0c-9.9,3.7-19.8,11.2-19.8,22.4s10,22.4,19.8,26.1c9.9,3.7,22.3,3.7,34.9,0 c9.9-3.7,19.8-11.2,19.8-22.4C329.6,215.2,319.7,207.7,309.8,204z" fill="#292929"/>
    <path d="M220.9,204c-12.7-3.7-25-3.7-34.9,0c-9.9,3.7-19.8,11.2-19.8,22.4s10,22.4,19.8,26.1c9.9,3.7,22.3,3.7,34.9,0 c9.9-3.7,19.8-11.2,19.8-22.4S230.8,207.7,220.9,204z" fill="#292929"/>
    <path d="M265.4,291c-22.3,0-44.6,7.5-59.4,14.9c-14.8,7.5-24.8,22.4-24.8,37.3c0,14.9,10,29.8,24.8,37.3c14.8,7.5,37.2,14.9,59.4,14.9 c22.3,0,44.6-7.5,59.4-14.9c14.8-7.5,24.8-22.4,24.8-37.3c0-14.9-10-29.8-24.8-37.3C310,298.5,287.7,291,265.4,291" fill="#f5ce3e"/>
    <path d="M410.6,220c37.2,48.5,58.6,102.3,58.6,156.7c0,5.6-0.3,11.1-0.8,16.6C447,358,409.8,300.9,372,254.3 C372,254.3,410.6,220,410.6,220" fill="#292929"/>
    <path d="M120.1,220c-37.2,48.5-58.6,102.3-58.6,156.7c0,5.6,0.3,11.1,0.8,16.6c21.4-35.3,58.6-92.4,96.4-139 C158.7,254.3,120.1,220,120.1,220" fill="#292929"/>
  </g>
</svg>
